<svg id="Layer_1" data-name="Layer 1" xmlns="http://www.w3.org/2000/svg" viewBox="0 0 394.77 595"><defs><style>.cls-1{fill:#fff;stroke:#231f20;stroke-miterlimit:10;}.cls-2{fill:#00aeef;}</style></defs><title>7 segment simple</title><polygon class="cls-1" points="112.56 36.5 153.62 0.5 324.62 0.5 355.56 36.5 314.5 72.5 143.5 72.5 112.56 36.5"/><polygon class="cls-1" points="61.24 81.5 102.3 45.5 133.24 81.5 109.21 252.5 68.15 288.5 37.21 252.5 61.24 81.5"/><polygon class="cls-1" points="106.82 333.5 75.88 297.5 116.94 261.5 287.94 261.5 318.88 297.5 277.82 333.5 106.82 333.5"/><polygon class="cls-1" points="394.24 81.5 363.3 45.5 322.24 81.5 298.21 252.5 329.15 288.5 370.21 252.5 394.24 81.5"/><polygon class="cls-1" points="282.2 558.5 241.14 594.5 70.14 594.5 39.2 558.5 80.26 522.5 251.26 522.5 282.2 558.5"/><polygon class="cls-1" points="333.53 513.5 292.47 549.5 261.53 513.5 285.56 342.5 326.62 306.5 357.56 342.5 333.53 513.5"/><polygon class="cls-1" points="0.53 513.5 31.47 549.5 72.53 513.5 96.56 342.5 65.62 306.5 24.56 342.5 0.53 513.5"/><rect class="cls-2" x="351.5" y="49.96" width="45.35" height="170.08" transform="translate(369.06 -337.68) rotate(90)"/><rect class="cls-2" x="463.66" y="180.46" width="45.35" height="170.08" transform="translate(790.88 497.6) rotate(-172)"/><rect class="cls-2" x="426.98" y="441.46" width="45.35" height="170.08" transform="translate(681.55 1011.96) rotate(-172)"/><rect class="cls-2" x="202.66" y="180.46" width="45.35" height="170.08" transform="translate(271.42 461.28) rotate(-172)"/><rect class="cls-2" x="165.98" y="441.46" width="45.35" height="170.08" transform="translate(162.09 975.63) rotate(-172)"/><rect class="cls-2" x="314.82" y="310.96" width="45.35" height="170.08" transform="translate(593.38 -40) rotate(90)"/><rect class="cls-2" x="278.14" y="571.96" width="45.35" height="170.08" transform="translate(817.7 257.68) rotate(90)"/></svg>