<?xml version="1.0" encoding="utf-8"?>
<!-- Generator: Adobe Illustrator 21.1.0, SVG Export Plug-In . SVG Version: 6.00 Build 0)  -->
<svg version="1.1" id="Layer_1" xmlns="http://www.w3.org/2000/svg" xmlns:xlink="http://www.w3.org/1999/xlink" x="0px" y="0px"
	 viewBox="0 0 612 792" style="enable-background:new 0 0 612 792;" xml:space="preserve">
<style type="text/css">
	.st0{fill:#00AEEF;}
</style>
<path d="M455.8,82.4L419.9,159c-1.2,2.6-2.5,3.6-5.5,3.6l-142.9-0.1c-1.7,0-3.5-0.2-5.1-0.8l-75-29.4c0,0,1.6-4.2,2.5-6.2
	c9.7-22.5,26.5-36.8,50.1-43c1.5-0.4,3.2-0.6,4.8-0.6L455.8,82.4z"/>
<path d="M413.1,431.7c-1.3,1.1-1.9,1.5-3.6,1.5l-166.5,0.4c-1.4,0-3.3-0.6-4.2-1.6l-34.2-38.6l41.6-37.8c1.3-1.1,3.3-1.9,4.9-1.9
	l165.1,0c1.4,0,3.3,0.6,4.2,1.6l34.3,38.5"/>
<path d="M499.1,356.7c-0.4,4.6-2.7,8.3-5.4,11.2l-17.3,15.5l-49.6-55c-3.5-3.8-4.4-7.4-3.8-12.4l15.2-150.2c0.2-2.2,1-4.4,1.9-6.4
	c11.6-24.5,23.2-48.9,34.8-73.5c1.2-2.4,2.2-3.2,5.1-2.3c22.9,7,36.6,22.3,40.8,45.7c1,5.6-0.7,17.5-0.7,17.5"/>
<path d="M251.1,321.8c-0.1,1-0.8,2.1-1.6,2.8L185,383.4l-16.8-19.1c-0.8-0.9-0.8-2.8-0.7-4.2L188.2,153l73.6,28.6
	c2.6,1,3.3,2.2,3,4.9L251.1,321.8z"/>
<path d="M539,672.6c22.2,0,40.3,18,40.3,40.2c0,22.2-18,40.4-40.1,40.5c-22.2,0.1-40.7-18.3-40.6-40.5
	C498.6,690.6,516.8,672.6,539,672.6z"/>
<rect x="307.1" y="34.5" transform="matrix(-1.836970e-16 1 -1 -1.836970e-16 449.3423 -210.3113)" class="st0" width="45.4" height="170.1"/>
<rect x="307.1" y="307.6" transform="matrix(-1.836970e-16 1 -1 -1.836970e-16 722.507 62.8534)" class="st0" width="45.4" height="170.1"/>
<rect x="184.5" y="173" transform="matrix(-0.9956 -9.404782e-02 9.404782e-02 -0.9956 389.1825 534.3571)" class="st0" width="45.4" height="170.1"/>
<rect x="449.5" y="152" transform="matrix(-0.9956 -9.404782e-02 9.404782e-02 -0.9956 919.983 517.3728)" class="st0" width="45.4" height="170.1"/>
</svg>
