<svg id="Layer_1" data-name="Layer 1" xmlns="http://www.w3.org/2000/svg" viewBox="0 0 532.97 631"><defs><style>.cls-1{fill:#fff;stroke:#231f20;stroke-miterlimit:10;}.cls-2{fill:#00aeef;}</style></defs><title>single simple digit with colon</title><polygon class="cls-1" points="108.62 36.5 139.56 72.5 328.56 72.5 369.62 36.5 338.68 0.5 149.68 0.5 108.62 36.5"/><polygon class="cls-1" points="368.36 45.5 327.3 81.5 300.74 270.5 331.68 306.5 372.74 270.5 399.3 81.5 368.36 45.5"/><polygon class="cls-1" points="69.41 315.5 100.35 351.5 289.35 351.5 330.41 315.5 299.47 279.5 110.47 279.5 69.41 315.5"/><polygon class="cls-1" points="107.36 45.5 66.3 81.5 39.74 270.5 70.68 306.5 111.74 270.5 138.3 81.5 107.36 45.5"/><polygon class="cls-1" points="329.15 324.5 288.09 360.5 261.53 549.5 292.47 585.5 333.53 549.5 360.09 360.5 329.15 324.5"/><polygon class="cls-1" points="68.15 324.5 27.09 360.5 0.53 549.5 31.47 585.5 72.53 549.5 99.09 360.5 68.15 324.5"/><polygon class="cls-1" points="30.2 594.5 61.14 630.5 250.14 630.5 291.2 594.5 260.26 558.5 71.26 558.5 30.2 594.5"/><rect class="cls-2" x="114.88" y="179.96" width="28.35" height="153.07" transform="translate(-3.08 -95.96) rotate(8)"/><rect class="cls-2" x="375.88" y="179.96" width="28.35" height="153.07" transform="translate(-0.54 -132.29) rotate(8)"/><rect class="cls-2" x="75.66" y="458.96" width="28.35" height="153.07" transform="translate(35.37 -87.79) rotate(8)"/><rect class="cls-2" x="336.66" y="458.96" width="28.35" height="153.07" transform="translate(37.91 -124.12) rotate(8)"/><rect class="cls-2" x="264.98" y="40.46" width="28.35" height="153.07" transform="translate(356.12 -242.65) rotate(90)"/><rect class="cls-2" x="225.77" y="319.46" width="28.35" height="153.07" transform="translate(595.91 75.56) rotate(90)"/><rect class="cls-2" x="186.56" y="598.46" width="28.35" height="153.07" transform="translate(835.7 393.77) rotate(90)"/><polygon class="cls-1" points="501.5 135.5 460.45 171.5 451.59 234.5 482.53 270.5 523.59 234.5 532.45 171.5 501.5 135.5"/><polygon class="cls-1" points="469.88 360.5 428.82 396.5 419.97 459.5 450.91 495.5 491.97 459.5 500.82 396.5 469.88 360.5"/></svg>