<svg id="Layer_1" data-name="Layer 1" xmlns="http://www.w3.org/2000/svg" viewBox="0 0 549.25 648.25"><defs><style>.cls-1{fill:#fff;}.cls-1,.cls-3{stroke:#231f20;stroke-miterlimit:10;}.cls-2{fill:#00aeef;}.cls-3{fill:none;stroke-width:0.25px;}</style></defs><title>single simple digit with colon-2</title><polygon class="cls-1" points="112.78 45.13 143.72 81.13 332.72 81.13 373.78 45.13 342.84 9.13 153.84 9.13 112.78 45.13"/><polygon class="cls-1" points="372.51 54.13 331.45 90.13 304.89 279.13 335.83 315.13 376.89 279.13 403.45 90.13 372.51 54.13"/><polygon class="cls-1" points="73.57 324.13 104.51 360.13 293.51 360.13 334.57 324.13 303.63 288.13 114.63 288.13 73.57 324.13"/><polygon class="cls-1" points="111.51 54.13 70.45 90.13 43.89 279.13 74.83 315.13 115.89 279.13 142.46 90.13 111.51 54.13"/><polygon class="cls-1" points="333.3 333.13 292.24 369.13 265.68 558.13 296.62 594.13 337.68 558.13 364.24 369.13 333.3 333.13"/><polygon class="cls-1" points="72.3 333.13 31.24 369.13 4.68 558.13 35.62 594.13 76.68 558.13 103.24 369.13 72.3 333.13"/><polygon class="cls-1" points="34.36 603.13 65.3 639.13 254.3 639.13 295.36 603.13 264.42 567.13 75.42 567.13 34.36 603.13"/><rect class="cls-2" x="114.88" y="179.96" width="28.35" height="153.07" transform="translate(1.08 -87.34) rotate(8)"/><rect class="cls-2" x="375.88" y="179.96" width="28.35" height="153.07" transform="translate(3.62 -123.66) rotate(8)"/><rect class="cls-2" x="75.66" y="458.96" width="28.35" height="153.07" transform="translate(39.53 -79.17) rotate(8)"/><rect class="cls-2" x="336.66" y="458.96" width="28.35" height="153.07" transform="translate(42.07 -115.49) rotate(8)"/><rect class="cls-2" x="264.98" y="40.46" width="28.35" height="153.07" transform="translate(360.28 -234.03) rotate(90)"/><rect class="cls-2" x="225.77" y="319.46" width="28.35" height="153.07" transform="translate(600.07 84.18) rotate(90)"/><rect class="cls-2" x="186.56" y="598.46" width="28.35" height="153.07" transform="translate(839.86 402.39) rotate(90)"/><polygon class="cls-1" points="505.66 144.13 464.6 180.13 455.75 243.13 486.69 279.13 527.75 243.13 536.6 180.13 505.66 144.13"/><polygon class="cls-1" points="474.04 369.13 432.98 405.13 424.13 468.13 455.07 504.13 496.13 468.13 504.98 405.13 474.04 369.13"/><rect class="cls-3" x="0.13" y="0.13" width="549" height="648"/></svg>